<svg id="visual" viewBox="0 0 900 600" width="900" height="600" xmlns="http://www.w3.org/2000/svg" xmlns:xlink="http://www.w3.org/1999/xlink" version="1.1"><path d="M0 177L90 177L90 211L180 211L180 263L270 263L270 283L360 283L360 311L450 311L450 289L540 289L540 172L630 172L630 314L720 314L720 276L810 276L810 329L900 329L900 296L900 601L900 601L810 601L810 601L720 601L720 601L630 601L630 601L540 601L540 601L450 601L450 601L360 601L360 601L270 601L270 601L180 601L180 601L90 601L90 601L0 601Z" fill="#c768ff"></path><path d="M0 339L90 339L90 381L180 381L180 313L270 313L270 414L360 414L360 426L450 426L450 407L540 407L540 379L630 379L630 393L720 393L720 395L810 395L810 371L900 371L900 333L900 601L900 601L810 601L810 601L720 601L720 601L630 601L630 601L540 601L540 601L450 601L450 601L360 601L360 601L270 601L270 601L180 601L180 601L90 601L90 601L0 601Z" fill="#884ace"></path><path d="M0 384L90 384L90 390L180 390L180 366L270 366L270 381L360 381L360 478L450 478L450 477L540 477L540 434L630 434L630 389L720 389L720 475L810 475L810 432L900 432L900 457L900 601L900 601L810 601L810 601L720 601L720 601L630 601L630 601L540 601L540 601L450 601L450 601L360 601L360 601L270 601L270 601L180 601L180 601L90 601L90 601L0 601Z" fill="#4c2d9d"></path><path d="M0 532L90 532L90 533L180 533L180 521L270 521L270 523L360 523L360 481L450 481L450 536L540 536L540 540L630 540L630 463L720 463L720 501L810 501L810 438L900 438L900 467L900 601L900 601L810 601L810 601L720 601L720 601L630 601L630 601L540 601L540 601L450 601L450 601L360 601L360 601L270 601L270 601L180 601L180 601L90 601L90 601L0 601Z" fill="#03136d"></path></svg>