<svg id="visual" viewBox="0 0 900 600" width="900" height="600" xmlns="http://www.w3.org/2000/svg" xmlns:xlink="http://www.w3.org/1999/xlink" version="1.1"><path d="M0 325L60 325L60 298L120 298L120 273L180 273L180 236L240 236L240 266L300 266L300 334L360 334L360 192L420 192L420 326L480 326L480 267L540 267L540 235L600 235L600 309L660 309L660 218L720 218L720 207L780 207L780 281L840 281L840 293L900 293L900 251L900 601L900 601L840 601L840 601L780 601L780 601L720 601L720 601L660 601L660 601L600 601L600 601L540 601L540 601L480 601L480 601L420 601L420 601L360 601L360 601L300 601L300 601L240 601L240 601L180 601L180 601L120 601L120 601L60 601L60 601L0 601Z" fill="#c768ff"></path><path d="M0 330L60 330L60 291L120 291L120 290L180 290L180 409L240 409L240 317L300 317L300 350L360 350L360 317L420 317L420 406L480 406L480 383L540 383L540 324L600 324L600 324L660 324L660 305L720 305L720 408L780 408L780 324L840 324L840 319L900 319L900 401L900 601L900 601L840 601L840 601L780 601L780 601L720 601L720 601L660 601L660 601L600 601L600 601L540 601L540 601L480 601L480 601L420 601L420 601L360 601L360 601L300 601L300 601L240 601L240 601L180 601L180 601L120 601L120 601L60 601L60 601L0 601Z" fill="#884ace"></path><path d="M0 467L60 467L60 446L120 446L120 461L180 461L180 431L240 431L240 454L300 454L300 381L360 381L360 434L420 434L420 432L480 432L480 377L540 377L540 466L600 466L600 400L660 400L660 413L720 413L720 418L780 418L780 483L840 483L840 480L900 480L900 440L900 601L900 601L840 601L840 601L780 601L780 601L720 601L720 601L660 601L660 601L600 601L600 601L540 601L540 601L480 601L480 601L420 601L420 601L360 601L360 601L300 601L300 601L240 601L240 601L180 601L180 601L120 601L120 601L60 601L60 601L0 601Z" fill="#4c2d9d"></path><path d="M0 490L60 490L60 557L120 557L120 482L180 482L180 507L240 507L240 480L300 480L300 500L360 500L360 522L420 522L420 542L480 542L480 492L540 492L540 553L600 553L600 503L660 503L660 514L720 514L720 541L780 541L780 485L840 485L840 520L900 520L900 466L900 601L900 601L840 601L840 601L780 601L780 601L720 601L720 601L660 601L660 601L600 601L600 601L540 601L540 601L480 601L480 601L420 601L420 601L360 601L360 601L300 601L300 601L240 601L240 601L180 601L180 601L120 601L120 601L60 601L60 601L0 601Z" fill="#03136d"></path></svg>