<svg xmlns="http://www.w3.org/2000/svg" xmlns:xlink="http://www.w3.org/1999/xlink" viewBox="0,0,256,256" width="36px" height="36px" fill-rule="nonzero"><g fill="none" fill-rule="nonzero" stroke="none" stroke-width="1" stroke-linecap="butt" stroke-linejoin="miter" stroke-miterlimit="10" stroke-dasharray="" stroke-dashoffset="0" font-family="none" font-weight="none" font-size="none" text-anchor="none" style="mix-blend-mode: normal"><g transform="scale(4,4)"><path d="M32,4c-15.46397,0 -28,12.53603 -28,28c0,15.46397 12.53603,28 28,28c15.46397,0 28,-12.53603 28,-28c0,-15.46397 -12.53603,-28 -28,-28z" fill="#0088cc"></path><path d="M32,61c-15.99,0 -29,-13.009 -29,-29c0,-15.991 13.01,-29 29,-29c15.99,0 29,13.009 29,29c0,15.991 -13.01,29 -29,29zM32,5c-14.888,0 -27,12.112 -27,27c0,14.888 12.112,27 27,27c14.888,0 27,-12.112 27,-27c0,-14.888 -12.112,-27 -27,-27z" fill="#b5b7b8"></path><path d="M9.979,39.605c-0.431,0 -0.828,-0.28 -0.958,-0.714c-0.158,-0.529 0.142,-1.086 0.671,-1.245l1.916,-0.574c0.529,-0.162 1.087,0.143 1.245,0.671c0.158,0.528 -0.142,1.086 -0.671,1.245l-1.916,0.574c-0.096,0.029 -0.193,0.043 -0.287,0.043zM12.251,44.78c-0.341,0 -0.672,-0.174 -0.859,-0.487c-0.283,-0.474 -0.129,-1.088 0.346,-1.372l1.717,-1.026c0.472,-0.284 1.087,-0.129 1.371,0.345c0.283,0.474 0.129,1.088 -0.346,1.372l-1.717,1.026c-0.16,0.097 -0.337,0.142 -0.512,0.142zM15.718,49.245c-0.257,0 -0.513,-0.098 -0.708,-0.294c-0.39,-0.391 -0.39,-1.024 0.002,-1.414l1.416,-1.413c0.391,-0.391 1.023,-0.389 1.414,0.002c0.39,0.391 0.39,1.024 -0.002,1.414l-1.416,1.413c-0.195,0.194 -0.45,0.292 -0.706,0.292zM20.173,52.722c-0.176,0 -0.353,-0.046 -0.514,-0.143c-0.474,-0.284 -0.627,-0.898 -0.343,-1.372l1.03,-1.714c0.284,-0.474 0.898,-0.627 1.372,-0.342c0.474,0.284 0.627,0.898 0.343,1.372l-1.03,1.714c-0.187,0.312 -0.518,0.485 -0.858,0.485zM25.345,55.007c-0.096,0 -0.192,-0.014 -0.289,-0.043c-0.528,-0.16 -0.828,-0.718 -0.668,-1.247l0.578,-1.915c0.159,-0.528 0.716,-0.827 1.246,-0.668c0.528,0.16 0.828,0.718 0.668,1.247l-0.578,1.915c-0.13,0.432 -0.528,0.711 -0.957,0.711z" fill="#b5b7b8"></path><g fill="#b5b7b8"><path d="M32,55c-0.553,0 -1,-0.448 -1,-1c0,-0.552 0.447,-1 1,-1c11.579,0 21,-9.42 21,-21c0,-11.58 -9.421,-21 -21,-21c-11.579,0 -21,9.42 -21,21c0,0.552 -0.447,1 -1,1c-0.553,0 -1,-0.448 -1,-1c0,-12.682 10.317,-23 23,-23c12.683,0 23,10.318 23,23c0,12.682 -10.317,23 -23,23z"></path></g><g fill="#ffffff"><path d="M40.501,21.149c-0.734,0.29 -21.568,9.074 -21.568,9.074c0,0 -1.009,0.345 -0.929,0.982c0.08,0.637 0.903,0.929 0.903,0.929l5.362,1.805c0,0 1.619,5.309 1.938,6.317c0.319,1.009 0.574,1.033 0.574,1.033c0.296,0.129 0.567,-0.077 0.567,-0.077l3.465,-3.159l5.401,4.141c1.46,0.637 1.991,-0.69 1.991,-0.69l3.721,-19.064c0.33,-1.476 -0.65,-1.596 -1.425,-1.291z"></path></g><g fill="#b5b7b8"><path d="M36.96,43.366c-0.33,0 -0.715,-0.068 -1.146,-0.256l-0.208,-0.123l-4.736,-3.631l-2.848,2.595c-0.388,0.301 -0.966,0.502 -1.548,0.291c-0.761,-0.234 -1.09,-1.272 -1.22,-1.685c-0.261,-0.821 -1.383,-4.494 -1.792,-5.835l-4.874,-1.641c-0.158,-0.056 -1.424,-0.539 -1.576,-1.751c-0.134,-1.067 0.776,-1.773 1.598,-2.053c0.786,-0.334 20.788,-8.767 21.524,-9.058h0.001c0.853,-0.335 1.688,-0.253 2.24,0.218c0.392,0.335 0.802,0.994 0.526,2.222l-3.768,19.217c-0.039,0.096 -0.403,0.951 -1.312,1.324c-0.218,0.089 -0.509,0.166 -0.861,0.166zM36.713,41.316c0.111,0.04 0.252,0.072 0.351,0.033c0.082,-0.034 0.151,-0.122 0.188,-0.175l3.693,-18.926c0.019,-0.083 0.03,-0.151 0.037,-0.208c-0.035,0.01 -0.073,0.022 -0.114,0.039c-0.597,0.236 -14.351,6.031 -21.546,9.065c-0.033,0.012 -0.065,0.025 -0.097,0.039c0.01,0.004 0.019,0.008 0.028,0.012l5.822,1.96l0.149,0.492c0.001,0 1.617,5.3 1.936,6.306c0.007,0.021 0.014,0.042 0.021,0.062l3.577,-3.266z"></path></g><g fill="#b5b7b8"><path d="M37.859,25.764c0.027,-0.451 -0.602,-0.129 -0.602,-0.129l-13.098,8.113c0,0 1.729,5.5 2.048,6.509c0.318,1.009 0.754,1.181 0.754,1.181l0.978,-6.224c0,0 9.257,-8.627 9.655,-8.999c0.398,-0.371 0.265,-0.451 0.265,-0.451z"></path></g></g></g></svg>