<svg xmlns="http://www.w3.org/2000/svg" xmlns:xlink="http://www.w3.org/1999/xlink" viewBox="0,0,256,256" width="36px" height="36px" fill-rule="nonzero"><g fill="none" fill-rule="nonzero" stroke="none" stroke-width="1" stroke-linecap="butt" stroke-linejoin="miter" stroke-miterlimit="10" stroke-dasharray="" stroke-dashoffset="0" font-family="none" font-weight="none" font-size="none" text-anchor="none" style="mix-blend-mode: normal"><g transform="scale(2.56,2.56)"><circle cx="50" cy="50" r="30" fill="#7700a6"></circle><path d="M50,83c-18.196,0 -33,-14.804 -33,-33c0,-18.196 14.804,-33 33,-33c18.196,0 33,14.804 33,33c0,18.196 -14.804,33 -33,33zM50,22c-15.439,0 -28,12.561 -28,28c0,15.439 12.561,28 28,28c15.439,0 28,-12.561 28,-28c0,-15.439 -12.561,-28 -28,-28z" fill="#7700a6"></path><path d="M69.457,49.039c0,-3.321 -1.305,-6.334 -3.419,-8.573c0.396,-2.203 0.351,-5.301 -0.538,-7.966c-4.475,0 -8.114,3.447 -8.702,4h-12.804c-0.589,-0.552 -4.019,-4 -8.494,-4c-0.8,2.401 -1.087,5.233 -0.846,7.295c-2.518,2.286 -4.108,5.575 -4.108,9.245c0,6.908 5.599,12.459 12.507,12.459h2.447c-2.003,0.917 -3.635,2.756 -4,5c-2,0 -4.864,-0.182 -6.181,-2.158c-2.46,-3.69 -3.59,-3.69 -4.819,-3.69c-1.23,0 -1.33,1.23 -0.1,2.46c1.23,1.23 1.23,1.23 2.46,3.69c1.012,2.027 3.64,3.699 8.64,3.699v6.6c0,0 6.346,1.4 8.5,1.4c2.154,0 8.5,-1.4 8.5,-1.4v-9.445c0,-2.718 -1.681,-5.092 -4,-6.155h2.449c6.909,0 12.508,-5.553 12.508,-12.461z" fill="#ffffff"></path><path d="M50,85c-19.299,0 -35,-15.701 -35,-35c0,-19.299 15.701,-35 35,-35c19.299,0 35,15.701 35,35c0,19.299 -15.701,35 -35,35zM50,17c-18.196,0 -33,14.804 -33,33c0,18.196 14.804,33 33,33c18.196,0 33,-14.804 33,-33c0,-18.196 -14.804,-33 -33,-33z" fill="#020505"></path><path d="M50,79c-15.99,0 -29,-13.009 -29,-29c0,-15.991 13.01,-29 29,-29c15.99,0 29,13.009 29,29c0,2.925 -0.435,5.812 -1.291,8.582c-0.082,0.263 -0.364,0.411 -0.625,0.33c-0.264,-0.082 -0.412,-0.361 -0.33,-0.625c0.827,-2.675 1.246,-5.462 1.246,-8.287c0,-15.439 -12.561,-28 -28,-28c-15.439,0 -28,12.561 -28,28c0,15.439 12.561,28 28,28c5.856,0 11.464,-1.788 16.217,-5.171c0.225,-0.16 0.536,-0.107 0.697,0.117c0.16,0.225 0.107,0.537 -0.117,0.697c-4.924,3.504 -10.732,5.357 -16.797,5.357z" fill="#020505"></path><path d="M68.631,72.068c-0.14,0 -0.279,-0.059 -0.378,-0.173c-0.181,-0.209 -0.158,-0.525 0.051,-0.706c0.739,-0.638 1.452,-1.324 2.122,-2.037c0.188,-0.202 0.505,-0.21 0.706,-0.023c0.201,0.189 0.212,0.505 0.023,0.707c-0.693,0.739 -1.433,1.449 -2.197,2.11c-0.095,0.082 -0.211,0.122 -0.327,0.122z" fill="#020505"></path><path d="M72.494,68.002c-0.107,0 -0.216,-0.035 -0.308,-0.105c-0.218,-0.17 -0.257,-0.484 -0.087,-0.702c1.649,-2.118 2.982,-4.452 3.963,-6.938c0.101,-0.258 0.392,-0.382 0.648,-0.282c0.257,0.102 0.383,0.392 0.281,0.648c-1.015,2.575 -2.396,4.993 -4.104,7.186c-0.097,0.127 -0.244,0.193 -0.393,0.193z" fill="#020505"></path><path d="M58.5,77.6c-0.276,0 -0.5,-0.224 -0.5,-0.5v-9.445c0,-2.431 -1.456,-4.668 -3.708,-5.701c-0.214,-0.098 -0.331,-0.332 -0.28,-0.561c0.05,-0.229 0.253,-0.393 0.488,-0.393h2.449c6.621,0 12.008,-5.366 12.008,-11.961c0,-3.064 -1.166,-5.987 -3.282,-8.229c-0.109,-0.115 -0.157,-0.275 -0.129,-0.432c0.333,-1.854 0.39,-4.725 -0.409,-7.37c-3.682,0.162 -6.795,2.725 -7.987,3.848c-0.093,0.087 -0.225,0.144 -0.352,0.144h-12.805c-0.127,0 -0.249,-0.048 -0.342,-0.135l-0.092,-0.087c-3.078,-2.927 -5.829,-3.686 -7.697,-3.77c-0.662,2.162 -0.941,4.762 -0.712,6.729c0.019,0.16 -0.042,0.319 -0.161,0.428c-2.506,2.275 -3.943,5.51 -3.943,8.875c0,6.595 5.387,11.96 12.007,11.96h2.447c0.235,0 0.438,0.164 0.488,0.394c0.051,0.229 -0.066,0.463 -0.28,0.561c-1.974,0.904 -3.397,2.676 -3.715,4.625c-0.039,0.242 -0.248,0.42 -0.493,0.42c-2.333,0 -5.191,-0.271 -6.598,-2.38c-2.311,-3.467 -3.28,-3.467 -4.403,-3.467c-0.14,0 -0.385,0.023 -0.448,0.178c-0.086,0.206 0.031,0.756 0.702,1.428c1.287,1.287 1.311,1.335 2.554,3.82c1.102,2.206 4.012,3.421 8.193,3.421c0.276,0 0.5,0.224 0.5,0.5v6.6c0,0.276 -0.224,0.5 -0.5,0.5c-0.276,0 -0.5,-0.224 -0.5,-0.5v-6.105c-5.797,-0.131 -7.866,-2.525 -8.588,-3.969c-1.194,-2.387 -1.194,-2.387 -2.366,-3.56c-0.869,-0.869 -1.213,-1.81 -0.919,-2.518c0.209,-0.505 0.709,-0.795 1.372,-0.795c1.588,0 2.81,0.272 5.235,3.912c1.069,1.604 3.359,1.9 5.356,1.932c0.362,-1.545 1.309,-2.965 2.63,-3.997h-0.668c-7.172,0 -13.007,-5.813 -13.007,-12.959c0,-3.562 1.485,-6.988 4.084,-9.442c-0.209,-2.203 0.128,-4.956 0.896,-7.257c0.069,-0.204 0.26,-0.342 0.475,-0.342c2.036,0 5.192,0.696 8.692,4h12.409c1.427,-1.311 4.847,-4 8.898,-4c0.215,0 0.406,0.138 0.475,0.342c0.935,2.802 0.928,5.901 0.598,7.965c2.185,2.404 3.385,5.495 3.385,8.732c0,7.147 -5.835,12.961 -13.008,12.961h-0.693c1.707,1.368 2.744,3.442 2.744,5.655v9.445c0,0.276 -0.224,0.5 -0.5,0.5z" fill="#020505"></path><path d="M34.238,45.97c-0.063,0 -0.127,-0.012 -0.188,-0.037c-0.256,-0.104 -0.379,-0.396 -0.274,-0.651c0.476,-1.167 1.167,-2.226 2.057,-3.148c0.192,-0.198 0.509,-0.204 0.707,-0.013c0.199,0.192 0.205,0.508 0.014,0.707c-0.802,0.831 -1.425,1.783 -1.852,2.831c-0.08,0.194 -0.266,0.311 -0.464,0.311z" fill="#020505"></path><path d="M33.66,51.021c-0.241,0 -0.454,-0.176 -0.493,-0.422c-0.08,-0.51 -0.121,-1.034 -0.121,-1.558c0,-0.533 0.042,-1.067 0.124,-1.59c0.044,-0.273 0.305,-0.459 0.572,-0.416c0.272,0.043 0.459,0.299 0.416,0.572c-0.074,0.471 -0.112,0.953 -0.112,1.434c0,0.472 0.037,0.943 0.109,1.402c0.043,0.273 -0.144,0.529 -0.416,0.572c-0.026,0.004 -0.052,0.006 -0.079,0.006z" fill="#020505"></path><path d="M41.457,58.914c-0.028,0 -0.057,-0.002 -0.085,-0.007c-3.442,-0.585 -6.372,-2.975 -7.646,-6.238c-0.101,-0.257 0.026,-0.547 0.284,-0.647c0.256,-0.101 0.547,0.027 0.647,0.284c1.146,2.938 3.783,5.089 6.882,5.615c0.271,0.046 0.455,0.305 0.409,0.577c-0.041,0.243 -0.252,0.416 -0.491,0.416z" fill="#020505"></path></g></g></svg>